# xmcd CD database file
#
# Track frame offsets:
#	150
#	30009
#	47031
#	61704
#	79021
#	91737
#	113702
#	132105
#	155545
#	170879
#	190616
#	209304
#	229622
#
# Disc length: 3339 seconds
#
# Revision: 0
# Processed by: cddbd v1.5.2PL0 Copyright (c) Steve Scherf et al.
# Submitted via: CDex 1.70beta2
#
DISCID=950d090d
DTITLE=Big Pete - Choice Cuts
DYEAR=2011
DGENRE=Blues
TTITLE0=Driftin'
TTITLE1=Can't You See What You're Doin' To Me
TTITLE2=Act Like You Love Me
TTITLE3=Just To Be With You
TTITLE4=Don't Start Crying Now
TTITLE5=I Got My Eyes On You
TTITLE6=Hey Lawdy Mama
TTITLE7=I Was Fooled
TTITLE8=Rockin' Daddy
TTITLE9=Left Me With A Broken Heart
TTITLE10=Just Your Fool
TTITLE11=Chromatic Crumbs
TTITLE12=I'm A Business Man
EXTD=YEAR: 2011
EXTT0=
EXTT1=
EXTT2=
EXTT3=
EXTT4=
EXTT5=
EXTT6=
EXTT7=
EXTT8=
EXTT9=
EXTT10=
EXTT11=
EXTT12=
PLAYORDER=
